<svg width="57" height="57" viewBox="0 0 57 57" fill="none" xmlns="http://www.w3.org/2000/svg">
<path d="M21.375 45.1249C9.5 48.6874 9.5 39.1874 4.75 37.9999M38 52.2499V43.0587C38.0891 41.9262 37.9361 40.7877 37.5512 39.7189C37.1662 38.6501 36.5582 37.6755 35.7675 36.8599C43.225 36.0287 51.0625 33.2024 51.0625 20.2349C51.0619 16.919 49.7864 13.7303 47.5 11.3287C48.5827 8.42762 48.5061 5.22099 47.2862 2.37491C47.2862 2.37491 44.4838 1.54366 38 5.88991C32.5565 4.41461 26.8185 4.41461 21.375 5.88991C14.8912 1.54366 12.0888 2.37491 12.0888 2.37491C10.8689 5.22099 10.7923 8.42762 11.875 11.3287C9.57155 13.7481 8.29474 16.9656 8.3125 20.3062C8.3125 33.1787 16.15 36.0049 23.6075 36.9312C22.8261 37.7386 22.2235 38.7015 21.8389 39.7572C21.4542 40.8129 21.2962 41.9378 21.375 43.0587V52.2499" stroke="white" stroke-width="4" stroke-linecap="round" stroke-linejoin="round"/>
</svg>
