<svg width="386" height="22" viewBox="0 0 386 22" fill="none" xmlns="http://www.w3.org/2000/svg">
<g clip-path="url(#clip0_2084_9)">
<path fill-rule="evenodd" clip-rule="evenodd" d="M375.009 0C368.921 0 364 4.95763 364 11.0909C364 15.9936 367.153 20.1435 371.528 21.6124C372.075 21.7228 372.275 21.3737 372.275 21.0801C372.275 20.823 372.257 19.9416 372.257 19.0233C369.194 19.6845 368.557 17.7012 368.557 17.7012C368.065 16.4159 367.335 16.0855 367.335 16.0855C366.333 15.4061 367.408 15.4061 367.408 15.4061C368.52 15.4795 369.104 16.5445 369.104 16.5445C370.088 18.2337 371.674 17.7564 372.311 17.4626C372.403 16.7464 372.694 16.2507 373.004 15.9753C370.562 15.7182 367.992 14.7634 367.992 10.5032C367.992 9.29128 368.429 8.29976 369.122 7.52862C369.012 7.25324 368.63 6.11456 369.231 4.59054C369.231 4.59054 370.161 4.29669 372.257 5.729C373.154 5.48622 374.079 5.36272 375.009 5.36168C375.939 5.36168 376.886 5.49035 377.761 5.729C379.857 4.29669 380.787 4.59054 380.787 4.59054C381.389 6.11456 381.006 7.25324 380.896 7.52862C381.607 8.29976 382.026 9.29128 382.026 10.5032C382.026 14.7634 379.457 15.6997 376.996 15.9753C377.397 16.3241 377.743 16.9851 377.743 18.0318C377.743 19.5191 377.725 20.7128 377.725 21.0799C377.725 21.3737 377.926 21.7228 378.472 21.6126C382.847 20.1433 386 15.9936 386 11.0909C386.018 4.95763 381.079 0 375.009 0Z" fill="white"/>
</g>
<g clip-path="url(#clip1_2084_9)">
<path d="M293.371 0H274.624C273.726 0 273 0.708984 273 1.58555V20.4102C273 21.2867 273.726 22 274.624 22H293.371C294.27 22 295 21.2867 295 20.4145V1.58555C295 0.708984 294.27 0 293.371 0ZM279.527 18.7473H276.261V8.2457H279.527V18.7473ZM277.894 6.81484C276.846 6.81484 275.999 5.96836 275.999 4.92422C275.999 3.88008 276.846 3.03359 277.894 3.03359C278.938 3.03359 279.785 3.88008 279.785 4.92422C279.785 5.96406 278.938 6.81484 277.894 6.81484ZM291.747 18.7473H288.486V13.6426C288.486 12.4266 288.464 10.8582 286.789 10.8582C285.091 10.8582 284.834 12.1859 284.834 13.5566V18.7473H281.577V8.2457H284.705V9.68086H284.748C285.182 8.85586 286.247 7.98359 287.833 7.98359C291.137 7.98359 291.747 10.1578 291.747 12.9852V18.7473Z" fill="white"/>
</g>
<g clip-path="url(#clip2_2084_9)">
<path d="M193 1.98086C195.939 1.98086 196.287 1.99375 197.443 2.04531C198.517 2.09258 199.097 2.27305 199.484 2.42344C199.995 2.62109 200.365 2.86172 200.747 3.24414C201.134 3.63086 201.37 3.99609 201.568 4.50742C201.718 4.89414 201.899 5.47852 201.946 6.54844C201.998 7.70859 202.011 8.05664 202.011 10.9914C202.011 13.9305 201.998 14.2785 201.946 15.4344C201.899 16.5086 201.718 17.0887 201.568 17.4754C201.37 17.9867 201.13 18.3563 200.747 18.7387C200.361 19.1254 199.995 19.3617 199.484 19.5594C199.097 19.7098 198.513 19.8902 197.443 19.9375C196.283 19.9891 195.935 20.002 193 20.002C190.061 20.002 189.713 19.9891 188.557 19.9375C187.483 19.8902 186.903 19.7098 186.516 19.5594C186.005 19.3617 185.635 19.1211 185.253 18.7387C184.866 18.352 184.63 17.9867 184.432 17.4754C184.282 17.0887 184.101 16.5043 184.054 15.4344C184.002 14.2742 183.989 13.9262 183.989 10.9914C183.989 8.05234 184.002 7.7043 184.054 6.54844C184.101 5.47422 184.282 4.89414 184.432 4.50742C184.63 3.99609 184.87 3.62656 185.253 3.24414C185.639 2.85742 186.005 2.62109 186.516 2.42344C186.903 2.27305 187.487 2.09258 188.557 2.04531C189.713 1.99375 190.061 1.98086 193 1.98086ZM193 0C190.014 0 189.64 0.0128906 188.467 0.0644531C187.298 0.116016 186.495 0.305078 185.798 0.575781C185.072 0.859375 184.458 1.2332 183.848 1.84766C183.233 2.45781 182.859 3.07227 182.576 3.79414C182.305 4.49453 182.116 5.29375 182.064 6.4625C182.013 7.63984 182 8.01367 182 11C182 13.9863 182.013 14.3602 182.064 15.5332C182.116 16.702 182.305 17.5055 182.576 18.2016C182.859 18.9277 183.233 19.5422 183.848 20.1523C184.458 20.7625 185.072 21.1406 185.794 21.4199C186.495 21.6906 187.294 21.8797 188.463 21.9312C189.636 21.9828 190.009 21.9957 192.996 21.9957C195.982 21.9957 196.356 21.9828 197.529 21.9312C198.698 21.8797 199.501 21.6906 200.197 21.4199C200.919 21.1406 201.534 20.7625 202.144 20.1523C202.754 19.5422 203.132 18.9277 203.411 18.2059C203.682 17.5055 203.871 16.7063 203.923 15.5375C203.974 14.3645 203.987 13.9906 203.987 11.0043C203.987 8.01797 203.974 7.64414 203.923 6.47109C203.871 5.30234 203.682 4.49883 203.411 3.80273C203.141 3.07227 202.767 2.45781 202.152 1.84766C201.542 1.2375 200.928 0.859375 200.206 0.580078C199.505 0.309375 198.706 0.120313 197.538 0.06875C196.36 0.0128906 195.986 0 193 0Z" fill="white"/>
<path d="M193 5.34961C189.88 5.34961 187.35 7.88047 187.35 11C187.35 14.1195 189.88 16.6504 193 16.6504C196.12 16.6504 198.65 14.1195 198.65 11C198.65 7.88047 196.12 5.34961 193 5.34961ZM193 14.6652C190.976 14.6652 189.335 13.0238 189.335 11C189.335 8.97617 190.976 7.33477 193 7.33477C195.024 7.33477 196.665 8.97617 196.665 11C196.665 13.0238 195.024 14.6652 193 14.6652Z" fill="white"/>
<path d="M200.193 5.12615C200.193 5.85662 199.6 6.44529 198.874 6.44529C198.143 6.44529 197.555 5.85232 197.555 5.12615C197.555 4.39568 198.148 3.80701 198.874 3.80701C199.6 3.80701 200.193 4.39998 200.193 5.12615Z" fill="white"/>
</g>
<path d="M107.799 1.74524H110.891L104.136 9.46677L112.083 19.974H105.86L100.986 13.6014L95.4091 19.974H92.3149L99.5409 11.715L91.9166 1.74524H98.2976L102.703 7.57004L107.799 1.74524ZM106.714 18.1231H108.427L97.3666 3.49894H95.5278L106.714 18.1231Z" fill="white"/>
<g clip-path="url(#clip3_2084_9)">
<path d="M11 0C4.92492 0 0 4.92492 0 11C0 16.1586 3.55168 20.4873 8.34284 21.6762V14.3616H6.07464V11H8.34284V9.55152C8.34284 5.80756 10.0373 4.0722 13.713 4.0722C14.41 4.0722 15.6125 4.20904 16.1044 4.34544V7.39244C15.8448 7.36516 15.3938 7.35152 14.8337 7.35152C13.0302 7.35152 12.3332 8.03484 12.3332 9.81112V11H15.9262L15.3089 14.3616H12.3332V21.9195C17.78 21.2617 22.0004 16.6241 22.0004 11C22 4.92492 17.0751 0 11 0Z" fill="white"/>
</g>
<defs>
<clipPath id="clip0_2084_9">
<rect width="22" height="22" fill="white" transform="translate(364)"/>
</clipPath>
<clipPath id="clip1_2084_9">
<rect width="22" height="22" fill="white" transform="translate(273)"/>
</clipPath>
<clipPath id="clip2_2084_9">
<rect width="22" height="22" fill="white" transform="translate(182)"/>
</clipPath>
<clipPath id="clip3_2084_9">
<rect width="22" height="22" fill="white"/>
</clipPath>
</defs>
</svg>
