<svg width="57" height="57" viewBox="0 0 57 57" fill="none" xmlns="http://www.w3.org/2000/svg">
<path d="M41.5625 15.4375H41.5863M16.625 4.75H40.375C46.9334 4.75 52.25 10.0666 52.25 16.625V40.375C52.25 46.9334 46.9334 52.25 40.375 52.25H16.625C10.0666 52.25 4.75 46.9334 4.75 40.375V16.625C4.75 10.0666 10.0666 4.75 16.625 4.75ZM38 27.0037C38.2931 28.9803 37.9555 30.999 37.0352 32.7727C36.1149 34.5463 34.6587 35.9846 32.8739 36.883C31.089 37.7813 29.0663 38.094 27.0935 37.7766C25.1207 37.4591 23.2982 36.5277 21.8852 35.1148C20.4723 33.7018 19.5409 31.8793 19.2234 29.9065C18.906 27.9337 19.2187 25.911 20.117 24.1261C21.0154 22.3413 22.4537 20.8851 24.2273 19.9648C26.001 19.0445 28.0197 18.7069 29.9963 19C32.0124 19.299 33.879 20.2385 35.3203 21.6797C36.7615 23.121 37.701 24.9876 38 27.0037Z" stroke="white" stroke-width="4" stroke-linecap="round" stroke-linejoin="round"/>
</svg>
