<svg width="57" height="57" viewBox="0 0 57 57" fill="none" xmlns="http://www.w3.org/2000/svg">
<path d="M38 19C41.7793 19 45.4039 20.5013 48.0763 23.1737C50.7487 25.8461 52.25 29.4707 52.25 33.25V49.875H42.75V33.25C42.75 31.9902 42.2496 30.782 41.3588 29.8912C40.468 29.0004 39.2598 28.5 38 28.5C36.7402 28.5 35.532 29.0004 34.6412 29.8912C33.7504 30.782 33.25 31.9902 33.25 33.25V49.875H23.75V33.25C23.75 29.4707 25.2513 25.8461 27.9237 23.1737C30.5961 20.5013 34.2207 19 38 19Z" stroke="white" stroke-width="4" stroke-linecap="round" stroke-linejoin="round"/>
<path d="M14.25 21.375H4.75V49.875H14.25V21.375Z" stroke="white" stroke-width="4" stroke-linecap="round" stroke-linejoin="round"/>
<path d="M9.5 14.25C12.1234 14.25 14.25 12.1234 14.25 9.5C14.25 6.87665 12.1234 4.75 9.5 4.75C6.87665 4.75 4.75 6.87665 4.75 9.5C4.75 12.1234 6.87665 14.25 9.5 14.25Z" stroke="white" stroke-width="4" stroke-linecap="round" stroke-linejoin="round"/>
</svg>
