<svg width="57" height="57" viewBox="0 0 57 57" fill="none" xmlns="http://www.w3.org/2000/svg">
<path d="M54.625 7.12496C52.3507 8.72922 49.8325 9.95622 47.1675 10.7587C45.7371 9.11404 43.8362 7.94835 41.7217 7.41928C39.6072 6.89021 37.3813 7.0233 35.3449 7.80053C33.3086 8.57777 31.5601 9.96166 30.3358 11.765C29.1116 13.5684 28.4708 15.7043 28.5 17.8837V20.2587C24.3263 20.3669 20.1905 19.4413 16.4611 17.5641C12.7318 15.687 9.5245 12.9167 7.125 9.49996C7.125 9.49996 -2.375 30.875 19 40.375C14.1088 43.6951 8.282 45.3599 2.375 45.125C23.75 57 49.875 45.125 49.875 17.8125C49.8728 17.1509 49.8092 16.491 49.685 15.8412C52.1089 13.4508 53.8195 10.4326 54.625 7.12496Z" stroke="white" stroke-width="4" stroke-linecap="round" stroke-linejoin="round"/>
</svg>
